<svg 
 xmlns="http://www.w3.org/2000/svg"
 xmlns:xlink="http://www.w3.org/1999/xlink"
 width="148px" height="49px">
<path fill-rule="evenodd"  fill="rgb(255, 255, 255)"
 d="M147.795,35.337 L147.795,37.051 L141.361,37.051 L141.361,28.368 L147.657,28.368 L147.657,30.095 L143.310,30.095 L143.310,31.883 L147.220,31.883 L147.220,33.536 L143.310,33.536 L143.310,35.337 L147.795,35.337 ZM137.113,8.996 L146.647,8.996 L146.647,11.610 L140.064,11.610 L140.064,14.319 L145.985,14.319 L145.985,16.821 L140.064,16.821 L140.064,19.548 L146.855,19.548 L146.855,22.144 L137.113,22.144 L137.113,8.996 ZM131.211,22.144 L128.260,22.144 L128.260,11.535 L124.515,11.535 L124.515,8.996 L134.957,8.996 L134.957,11.535 L131.211,11.535 L131.211,22.144 ZM121.904,22.144 L120.675,19.304 L115.132,19.304 L113.903,22.144 L110.762,22.144 L116.475,8.996 L119.332,8.996 L125.044,22.144 L121.904,22.144 ZM117.913,12.908 L116.248,16.727 L119.559,16.727 L117.913,12.908 ZM101.739,8.996 L104.690,8.996 L104.690,19.529 L110.327,19.529 L110.327,22.144 L101.739,22.144 L101.739,8.996 ZM93.643,18.476 L91.884,18.476 L91.884,22.144 L88.933,22.144 L88.933,8.996 L93.606,8.996 C95.636,8.996 97.115,9.388 98.041,10.171 C98.968,10.955 99.432,12.159 99.432,13.783 C99.432,15.407 98.956,16.595 98.004,17.347 C97.051,18.100 95.598,18.476 93.643,18.476 ZM95.715,11.996 C95.254,11.676 94.539,11.516 93.568,11.516 L91.884,11.516 L91.884,15.937 L93.870,15.937 C94.854,15.937 95.522,15.739 95.876,15.344 C96.228,14.949 96.405,14.373 96.405,13.614 C96.405,12.855 96.175,12.316 95.715,11.996 ZM90.202,28.368 L92.150,28.368 L92.150,37.051 L90.202,37.051 L86.041,31.610 L86.041,37.051 L84.092,37.051 L84.092,28.368 L85.916,28.368 L90.202,33.958 L90.202,28.368 ZM82.729,13.868 L79.153,21.053 L77.394,21.053 L73.838,13.868 L73.838,22.144 L70.887,22.144 L70.887,8.996 L74.878,8.996 L78.283,16.219 L81.707,8.996 L85.680,8.996 L85.680,22.144 L82.729,22.144 L82.729,13.868 ZM71.949,28.368 L71.949,33.225 C71.949,34.484 71.599,35.451 70.900,36.126 C70.200,36.801 69.305,37.138 68.214,37.138 C67.122,37.138 66.225,36.799 65.521,36.120 C64.818,35.441 64.466,34.476 64.466,33.225 L64.466,28.368 L66.415,28.368 L66.415,33.163 C66.415,33.859 66.577,34.407 66.902,34.809 C67.227,35.211 67.664,35.411 68.214,35.411 C68.763,35.411 69.198,35.211 69.519,34.809 C69.840,34.407 70.000,33.859 70.000,33.163 L70.000,28.368 L71.949,28.368 ZM58.516,8.996 L68.050,8.996 L68.050,11.610 L61.467,11.610 L61.467,14.319 L67.388,14.319 L67.388,16.821 L61.467,16.821 L61.467,19.548 L68.258,19.548 L68.258,22.144 L58.516,22.144 L58.516,8.996 ZM52.614,22.144 L49.663,22.144 L49.663,11.535 L45.918,11.535 L45.918,8.996 L56.360,8.996 L56.360,11.535 L52.614,11.535 L52.614,22.144 ZM50.792,28.579 C51.221,28.720 51.544,28.910 51.760,29.150 C52.152,29.598 52.347,30.103 52.347,30.666 C52.347,31.345 52.127,31.850 51.685,32.182 C51.535,32.298 51.431,32.370 51.373,32.399 C51.315,32.428 51.211,32.476 51.061,32.542 C51.602,32.658 52.033,32.900 52.354,33.269 C52.674,33.637 52.835,34.095 52.835,34.641 C52.835,35.246 52.626,35.780 52.210,36.244 C51.727,36.782 50.886,37.051 49.686,37.051 L45.864,37.051 L45.864,28.368 L49.262,28.368 C49.853,28.368 50.363,28.438 50.792,28.579 ZM47.812,35.411 L49.149,35.411 C49.707,35.411 50.126,35.343 50.405,35.206 C50.684,35.070 50.823,34.801 50.823,34.399 C50.823,33.997 50.675,33.732 50.380,33.604 C50.084,33.476 49.611,33.411 48.962,33.411 L47.812,33.411 L47.812,35.411 ZM47.812,30.008 L47.812,31.883 L48.737,31.883 C49.278,31.883 49.680,31.826 49.943,31.709 C50.205,31.594 50.336,31.343 50.336,30.958 C50.336,30.573 50.215,30.318 49.974,30.194 C49.732,30.070 49.324,30.008 48.749,30.008 L47.812,30.008 ZM111.090,29.504 C111.923,30.262 112.339,31.316 112.339,32.666 C112.339,34.016 111.933,35.084 111.121,35.871 C110.309,36.658 109.070,37.051 107.404,37.051 L104.419,37.051 L104.419,28.368 L107.504,28.368 C109.062,28.368 110.257,28.747 111.090,29.504 ZM106.367,30.057 L106.367,35.337 L107.604,35.337 C108.495,35.337 109.180,35.113 109.659,34.666 C110.138,34.219 110.378,33.569 110.378,32.716 C110.378,31.863 110.138,31.206 109.659,30.747 C109.180,30.287 108.445,30.057 107.454,30.057 L106.367,30.057 ZM126.094,35.325 L129.817,35.325 L129.817,37.051 L124.145,37.051 L124.145,28.368 L126.094,28.368 L126.094,35.325 Z"/>
<path fill-rule="evenodd"  opacity="0.451" fill="rgb(255, 255, 255)"
 d="M0.683,43.669 L0.683,5.094 L34.787,0.503 L34.787,48.495 L0.683,43.669 ZM20.758,18.027 L20.485,17.712 L11.793,17.032 L8.141,20.150 L8.496,20.501 L17.619,20.871 L17.619,31.948 L17.918,32.226 L20.485,32.005 L20.758,31.689 L20.758,18.027 ZM23.538,29.165 L31.490,19.058 L31.490,18.629 L21.736,17.873 L21.469,18.143 L21.469,26.498 L21.607,26.644 L24.927,22.624 L23.150,20.425 L27.220,20.623 L21.469,27.527 L21.469,31.630 L21.736,31.898 L31.490,31.059 L31.591,30.918 L27.220,25.273 L25.666,27.238 L27.100,28.968 L23.538,29.165 Z"/>
<path fill-rule="evenodd"  fill="rgb(255, 255, 255)"
 d="M3.807,46.548 L3.807,2.840 L37.752,7.021 L37.752,42.153 L3.807,46.548 ZM20.758,18.027 L20.485,17.712 L11.793,17.032 L8.141,20.150 L8.496,20.501 L17.619,20.871 L17.619,31.948 L17.918,32.226 L20.485,32.005 L20.758,31.689 L20.758,18.027 ZM23.538,29.165 L31.490,19.058 L31.490,18.629 L21.736,17.873 L21.469,18.143 L21.469,26.498 L21.607,26.644 L24.927,22.624 L23.150,20.425 L27.220,20.623 L21.469,27.527 L21.469,31.630 L21.736,31.898 L31.490,31.059 L31.591,30.918 L27.220,25.273 L25.666,27.238 L27.100,28.968 L23.538,29.165 Z"/>
</svg>